<svg height="512" viewBox="0 0 512 512" width="512" xmlns="http://www.w3.org/2000/svg"><g id="Flat"><path d="m96 224h-16v-144a24.028 24.028 0 0 1 24-24h40v16h-40a8.009 8.009 0 0 0 -8 8z" fill="#959494"/><g fill="#686869"><path d="m112 280h-48v-32l8-32h32l8 32z"/><path d="m200 40v48h-32l-32-8v-32l32-8z"/><path d="m192.001 80h272v64h-272z"/></g><path d="m192 80h272v32h-272z" fill="#4e4e4f"/><path d="m168 32h320v64h-320z" fill="#3f3f40"/><path d="m448 56h16v16h-16z" fill="#57c3c1"/><path d="m416 56h16v16h-16z" fill="#57c3c1"/><path d="m336 56h64v16h-64z" fill="#57c3c1"/><path d="m192.001 176h272v64h-272z" fill="#686869"/><path d="m192 176h272v32h-272z" fill="#4e4e4f"/><path d="m168 128h320v64h-320z" fill="#3f3f40"/><path d="m448 152h16v16h-16z" fill="#57c3c1"/><path d="m416 152h16v16h-16z" fill="#57c3c1"/><path d="m336 152h64v16h-64z" fill="#57c3c1"/><path d="m192.001 272h272v64h-272z" fill="#686869"/><path d="m192 272h272v32h-272z" fill="#4e4e4f"/><path d="m168 224h320v64h-320z" fill="#3f3f40"/><path d="m448 248h16v16h-16z" fill="#57c3c1"/><path d="m416 248h16v16h-16z" fill="#57c3c1"/><path d="m336 248h64v16h-64z" fill="#57c3c1"/><path d="m392 384 32 32h32v-48h-64z" fill="#686869"/><path d="m456 400h-48l-16-16v-16h64z" fill="#4e4e4f"/><path d="m168 320h320v64h-320z" fill="#3f3f40"/><path d="m448 344h16v16h-16z" fill="#57c3c1"/><path d="m416 344h16v16h-16z" fill="#57c3c1"/><path d="m336 344h64v16h-64z" fill="#57c3c1"/><path d="m280 480a16 16 0 0 0 16-16v-240h-48l-24 24h-176v232z" fill="#f5a922"/><path d="m240 480h-200a16 16 0 0 1 -16-16v-168h240v168a16 16 0 0 0 16 16z" fill="#f8bc1e"/><path d="m48 320h16v16h-16z" fill="#f5a922"/><path d="m80 320h16v16h-16z" fill="#f5a922"/><path d="m112 320h16v16h-16z" fill="#f5a922"/></g></svg>
